<?xml version="1.0" encoding="UTF-8"?>
<svg width="21px" height="21px" viewBox="0 0 21 21" version="1.1" xmlns="http://www.w3.org/2000/svg" xmlns:xlink="http://www.w3.org/1999/xlink">
    <!-- Generator: Sketch 53.2 (72643) - https://sketchapp.com -->
    <title>meetings icon</title>
    <desc>Created with Sketch.</desc>
    <g id="Page-1" stroke="none" stroke-width="1" fill="none" fill-rule="evenodd">
        <g id="Content-Management-2" transform="translate(-39.000000, -331.000000)" fill="#007AFF">
            <g id="main-nav" transform="translate(-5.000000, 0.000000)">
                <g id="meetings-icon" transform="translate(43.973244, 331.031217)">
                    <path d="M5.72240134,8.16124495 C5.74403344,8.17491331 5.76831438,8.1894635 5.79347826,8.20533643 C5.99832107,8.33231989 6.14621405,8.42403017 6.20272241,8.61759178 C6.42345819,9.38390171 7.91783946,12.2317705 9.93889632,12.2317705 C11.9581873,12.2317705 13.453893,9.3834608 13.6746288,8.61891452 C13.7298127,8.42535292 13.8785886,8.33276081 14.0838729,8.20489551 C14.1090368,8.1894635 14.1333177,8.17491331 14.1545084,8.16124495 C14.6957525,7.17668218 14.6105485,6.73709011 14.5469766,6.59158822 C14.4697191,6.41478139 14.3072575,6.37157173 14.2891572,6.36716259 C14.082107,6.31778013 13.9271505,6.12421853 13.9386288,5.91169759 C13.9390702,5.90067472 13.9955786,4.77325555 13.7214247,3.73931032 C13.6949365,3.64319089 13.0013846,1.2913513 9.93889632,1.2913513 C6.85256856,1.2913513 6.16210702,3.71682366 6.15548495,3.74151489 C5.88044816,4.77854653 5.93828094,5.9002338 5.93872241,5.91125667 C5.95152508,6.13303682 5.79656856,6.32924391 5.57804013,6.36936716 C5.56965217,6.37157173 5.40719064,6.41478139 5.32993311,6.59158822 C5.26680268,6.73709011 5.18115719,7.17668218 5.72240134,8.16124495 M9.93889632,13.1136001 C7.50329766,13.1136001 5.80319064,10.1903349 5.39703679,8.99721943 C5.37496321,8.98311015 5.35068227,8.96855996 5.32728428,8.95400978 C5.16835452,8.85568577 5.06328428,8.79043038 4.99441472,8.66741515 C4.40946488,7.63435175 4.25494983,6.80631374 4.53528428,6.20799234 C4.66905017,5.92139771 4.87212709,5.74811819 5.05048161,5.64494413 C5.05004013,5.19785651 5.08270903,4.34336361 5.30256187,3.51356194 C5.3113913,3.48093424 6.18373913,0.409521675 9.93889632,0.409521675 C13.6940535,0.409521675 14.5659599,3.48093424 14.5747893,3.51179828 C14.7950836,4.34292269 14.8277525,5.19785651 14.827311,5.64494413 C15.0052241,5.74811819 15.208301,5.92139771 15.3420669,6.20755142 C15.6224013,6.80631374 15.4674448,7.63435175 14.882495,8.66873789 C14.8140669,8.79043038 14.7089967,8.85524486 14.5500669,8.95356886 C14.5266689,8.96855996 14.5028294,8.98311015 14.4803144,8.99721943 C14.0723946,10.1925395 12.3714047,13.1136001 9.93889632,13.1136001" id="Fill-1"></path>
                    <path d="M13.1235398,13.2524442 C13.0551117,13.2524442 12.9858007,13.2365712 12.9204629,13.2030617 C12.0251585,12.7387784 11.7585097,12.2859589 11.7143625,12.1999805 C11.6031117,11.9834913 11.6883157,11.7176197 11.9050783,11.6065092 C12.1200749,11.4967214 12.3796602,11.5782906 12.4935599,11.7855206 C12.5072455,11.8071254 12.6992856,12.0950428 13.3274997,12.419997 C13.5438207,12.5324303 13.6281418,12.7983019 13.516008,13.0143502 C13.4374261,13.1660249 13.282911,13.2524442 13.1235398,13.2524442" id="Fill-4"></path>
                    <path d="M10.1690355,20.7229961 C5.09034649,20.7229961 0.438560535,19.8790851 0.388674247,19.8698259 C0.171470234,19.8301436 0.0169551839,19.6357001 0.0271090301,19.4152427 C0.237249498,15.0184403 2.9796709,13.6529271 5.02456722,13.0087505 C6.61783813,12.5065486 7.45177793,11.6935017 7.45972441,11.6851243 C7.63322274,11.5140493 7.91267425,11.5149312 8.08396522,11.6877698 C8.25569766,11.8610493 8.25481472,12.1401484 8.08131639,12.3116642 C8.04158395,12.3509057 7.08535652,13.2838814 5.28989164,13.8495751 C3.29797191,14.4774378 1.23938997,15.5938341 0.935216054,19.0686837 C2.25742341,19.2851729 6.76528963,19.9513951 11.3464401,19.8248526 C11.5941057,19.8186798 11.7936508,20.0100368 11.8002729,20.2534218 C11.806895,20.4968068 11.6148548,20.6996276 11.371604,20.7062413 C10.9689819,20.7177051 10.5676843,20.7229961 10.1690355,20.7229961" id="Fill-6"></path>
                    <path d="M14.0077632,14.9747456 L14.0077632,19.8248085 L19.3058635,19.8248085 L19.3054221,14.9747456 L14.0077632,14.9747456 Z M19.3054221,20.7066381 L14.0077632,20.7066381 C13.5208201,20.7066381 13.1248201,20.3111375 13.1248201,19.8248085 L13.1248201,14.9747456 C13.1248201,14.4884166 13.5208201,14.092916 14.0077632,14.092916 L19.3054221,14.092916 C19.7923652,14.092916 20.1883652,14.4884166 20.1883652,14.9747456 L20.1883652,19.8248085 C20.1883652,20.3111375 19.7923652,20.7066381 19.3054221,20.7066381 L19.3054221,20.7066381 Z" id="Fill-9"></path>
                    <path d="M19.3054221,17.1793196 L14.0077632,17.1793196 C13.7636294,17.1793196 13.5662916,16.9817898 13.5662916,16.7384048 C13.5662916,16.4950199 13.7636294,16.29749 14.0077632,16.29749 L19.3054221,16.29749 C19.5495559,16.29749 19.7468936,16.4950199 19.7468936,16.7384048 C19.7468936,16.9817898 19.5495559,17.1793196 19.3054221,17.1793196" id="Fill-12"></path>
                    <path d="M15.3321779,15.8565752 C15.0880441,15.8565752 14.8907064,15.6590454 14.8907064,15.4156604 L14.8907064,13.6520012 C14.8907064,13.4086162 15.0880441,13.2110864 15.3321779,13.2110864 C15.5763117,13.2110864 15.7736495,13.4086162 15.7736495,13.6520012 L15.7736495,15.4156604 C15.7736495,15.6590454 15.5763117,15.8565752 15.3321779,15.8565752" id="Fill-14"></path>
                    <path d="M17.9810074,15.8565752 C17.7368736,15.8565752 17.5395358,15.6590454 17.5395358,15.4156604 L17.5395358,13.6520012 C17.5395358,13.4086162 17.7368736,13.2110864 17.9810074,13.2110864 C18.2251411,13.2110864 18.4224789,13.4086162 18.4224789,13.6520012 L18.4224789,15.4156604 C18.4224789,15.6590454 18.2251411,15.8565752 17.9810074,15.8565752" id="Fill-16"></path>
                </g>
            </g>
        </g>
    </g>
</svg>