<?xml version="1.0" encoding="UTF-8"?>
<svg width="15px" height="14px" viewBox="0 0 15 14" version="1.1" xmlns="http://www.w3.org/2000/svg" xmlns:xlink="http://www.w3.org/1999/xlink">
    <!-- Generator: Sketch 53.2 (72643) - https://sketchapp.com -->
    <title>Fill 38</title>
    <desc>Created with Sketch.</desc>
    <g id="Page-1" stroke="none" stroke-width="1" fill="none" fill-rule="evenodd" opacity="0.571897645">
        <g id="Content-Management-1" transform="translate(-1302.000000, -168.000000)" fill="#007AFF">
            <g id="view-buttons" transform="translate(1198.000000, 152.000000)">
                <g id="table-icon" transform="translate(104.000000, 16.000000)">
                    <path d="M13.125,12.1875 L1.875,12.1875 C1.3575,12.1875 0.9375,11.765625 0.9375,11.25 C0.9375,10.734375 1.3575,10.3125 1.875,10.3125 L13.125,10.3125 C13.6425,10.3125 14.0625,10.734375 14.0625,11.25 C14.0625,11.765625 13.6425,12.1875 13.125,12.1875 L13.125,12.1875 Z M13.125,9.375 L1.875,9.375 C0.83953125,9.375 0,10.2140625 0,11.25 C0,12.2859375 0.83953125,13.125 1.875,13.125 L13.125,13.125 C14.1604688,13.125 15,12.2859375 15,11.25 C15,10.2140625 14.1604688,9.375 13.125,9.375 L13.125,9.375 Z M13.125,7.5 L1.875,7.5 C1.3575,7.5 0.9375,7.078125 0.9375,6.5625 C0.9375,6.046875 1.3575,5.625 1.875,5.625 L13.125,5.625 C13.6425,5.625 14.0625,6.046875 14.0625,6.5625 C14.0625,7.078125 13.6425,7.5 13.125,7.5 L13.125,7.5 Z M13.125,4.6875 L1.875,4.6875 C0.83953125,4.6875 0,5.5265625 0,6.5625 C0,7.5984375 0.83953125,8.4375 1.875,8.4375 L13.125,8.4375 C14.1604688,8.4375 15,7.5984375 15,6.5625 C15,5.5265625 14.1604688,4.6875 13.125,4.6875 L13.125,4.6875 Z M1.875,0.9375 L13.125,0.9375 C13.6425,0.9375 14.0625,1.359375 14.0625,1.875 C14.0625,2.390625 13.6425,2.8125 13.125,2.8125 L1.875,2.8125 C1.3575,2.8125 0.9375,2.390625 0.9375,1.875 C0.9375,1.359375 1.3575,0.9375 1.875,0.9375 L1.875,0.9375 Z M1.875,3.75 L13.125,3.75 C14.1604688,3.75 15,2.9109375 15,1.875 C15,0.8390625 14.1604688,0 13.125,0 L1.875,0 C0.83953125,0 0,0.8390625 0,1.875 C0,2.9109375 0.83953125,3.75 1.875,3.75 L1.875,3.75 Z" id="Fill-38"></path>
                </g>
            </g>
        </g>
    </g>
</svg>